<svg id="bbbb021b-8e72-40b6-a205-45c9f671c21c" data-name="Layer 1" xmlns="http://www.w3.org/2000/svg" viewBox="0 0 200 200"><path d="M100,0A100,100,0,1,0,200,100,100,100,0,0,0,100,0Zm0,187.33A87.33,87.33,0,1,1,187.33,100,87.331,87.331,0,0,1,100,187.33Z"/><circle cx="63.236" cy="80.786" r="15.739"/><circle cx="136.764" cy="80.786" r="15.739"/><path d="M136.1,121.034a51.582,51.582,0,0,1-72.2,0c-6.913-6.746-17.53,3.851-10.606,10.607a66.865,66.865,0,0,0,93.41,0c6.921-6.753-3.69-17.356-10.606-10.606Z"/></svg>