<svg id="e9c038f3-420a-465e-8d1f-288a22b590a5" data-name="Layer 1" xmlns="http://www.w3.org/2000/svg" viewBox="0 0 197.804 197.806"><defs><style>.f9030362-664c-4dd7-bb12-c4438d53f14d{fill:#1d1d1b;}</style></defs><path class="f9030362-664c-4dd7-bb12-c4438d53f14d" d="M26.607,194.607l56.871-56.872L173.712,47.5,194.5,26.718a15.239,15.239,0,0,0,0-21.213,15.2,15.2,0,0,0-21.213,0L116.411,62.376,26.177,152.61,5.393,173.393a15.243,15.243,0,0,0,0,21.214,15.206,15.206,0,0,0,21.214,0Z" transform="translate(-1.097 -1.111)"/><path class="f9030362-664c-4dd7-bb12-c4438d53f14d" d="M183.889,1.111H16.333c-7.846,0-15.362,6.9-15,15,.364,8.127,6.591,15,15,15H183.889c7.846,0,15.363-6.9,15-15-.364-8.127-6.591-15-15-15Z" transform="translate(-1.097 -1.111)"/><path class="f9030362-664c-4dd7-bb12-c4438d53f14d" d="M168.889,17.444V183.667c0,7.846,6.9,15.362,15,15,8.127-.364,15-6.591,15-15V17.444c0-7.846-6.9-15.362-15-15-8.127.364-15,6.591-15,15Z" transform="translate(-1.097 -1.111)"/></svg>